<svg xmlns="http://www.w3.org/2000/svg" width="1500" height="1400"><circle cx="50" cy="60" r="30" fill="#676be9"/><rect x="25" y="90" width="50" height="80" fill="#676be9" rx="10"/><rect x="35" y="170" width="10" height="40" fill="#676be9" rx="5"/><rect x="55" y="170" width="10" height="40" fill="#676be9" rx="5"/><circle cx="150" cy="60" r="30" fill="#2ef1f3"/><rect x="125" y="90" width="50" height="80" fill="#2ef1f3" rx="10"/><rect x="135" y="170" width="10" height="40" fill="#2ef1f3" rx="5"/><rect x="155" y="170" width="10" height="40" fill="#2ef1f3" rx="5"/><circle cx="250" cy="60" r="30" fill="#c880da"/><rect x="225" y="90" width="50" height="80" fill="#c880da" rx="10"/><rect x="235" y="170" width="10" height="40" fill="#c880da" rx="5"/><rect x="255" y="170" width="10" height="40" fill="#c880da" rx="5"/><circle cx="350" cy="60" r="30" fill="#64411e"/><rect x="325" y="90" width="50" height="80" fill="#64411e" rx="10"/><rect x="335" y="170" width="10" height="40" fill="#64411e" rx="5"/><rect x="355" y="170" width="10" height="40" fill="#64411e" rx="5"/><circle cx="450" cy="60" r="30" fill="#2553ce"/><rect x="425" y="90" width="50" height="80" fill="#2553ce" rx="10"/><rect x="435" y="170" width="10" height="40" fill="#2553ce" rx="5"/><rect x="455" y="170" width="10" height="40" fill="#2553ce" rx="5"/><circle cx="550" cy="60" r="30" fill="#362072"/><rect x="525" y="90" width="50" height="80" fill="#362072" rx="10"/><rect x="535" y="170" width="10" height="40" fill="#362072" rx="5"/><rect x="555" y="170" width="10" height="40" fill="#362072" rx="5"/><circle cx="650" cy="60" r="30" fill="#b1be76"/><rect x="625" y="90" width="50" height="80" fill="#b1be76" rx="10"/><rect x="635" y="170" width="10" height="40" fill="#b1be76" rx="5"/><rect x="655" y="170" width="10" height="40" fill="#b1be76" rx="5"/><circle cx="750" cy="60" r="30" fill="#7b1b5b"/><rect x="725" y="90" width="50" height="80" fill="#7b1b5b" rx="10"/><rect x="735" y="170" width="10" height="40" fill="#7b1b5b" rx="5"/><rect x="755" y="170" width="10" height="40" fill="#7b1b5b" rx="5"/><circle cx="850" cy="60" r="30" fill="#cda63f"/><rect x="825" y="90" width="50" height="80" fill="#cda63f" rx="10"/><rect x="835" y="170" width="10" height="40" fill="#cda63f" rx="5"/><rect x="855" y="170" width="10" height="40" fill="#cda63f" rx="5"/><circle cx="950" cy="60" r="30" fill="#8427b9"/><rect x="925" y="90" width="50" height="80" fill="#8427b9" rx="10"/><rect x="935" y="170" width="10" height="40" fill="#8427b9" rx="5"/><rect x="955" y="170" width="10" height="40" fill="#8427b9" rx="5"/><circle cx="1050" cy="60" r="30" fill="#709378"/><rect x="1025" y="90" width="50" height="80" fill="#709378" rx="10"/><rect x="1035" y="170" width="10" height="40" fill="#709378" rx="5"/><rect x="1055" y="170" width="10" height="40" fill="#709378" rx="5"/><circle cx="1150" cy="60" r="30" fill="#75ab1e"/><rect x="1125" y="90" width="50" height="80" fill="#75ab1e" rx="10"/><rect x="1135" y="170" width="10" height="40" fill="#75ab1e" rx="5"/><rect x="1155" y="170" width="10" height="40" fill="#75ab1e" rx="5"/><circle cx="1250" cy="60" r="30" fill="#f02eba"/><rect x="1225" y="90" width="50" height="80" fill="#f02eba" rx="10"/><rect x="1235" y="170" width="10" height="40" fill="#f02eba" rx="5"/><rect x="1255" y="170" width="10" height="40" fill="#f02eba" rx="5"/><circle cx="1350" cy="60" r="30" fill="#49048d"/><rect x="1325" y="90" width="50" height="80" fill="#49048d" rx="10"/><rect x="1335" y="170" width="10" height="40" fill="#49048d" rx="5"/><rect x="1355" y="170" width="10" height="40" fill="#49048d" rx="5"/><circle cx="1450" cy="60" r="30" fill="#5bb233"/><rect x="1425" y="90" width="50" height="80" fill="#5bb233" rx="10"/><rect x="1435" y="170" width="10" height="40" fill="#5bb233" rx="5"/><rect x="1455" y="170" width="10" height="40" fill="#5bb233" rx="5"/><circle cx="50" cy="260" r="30" fill="#c9ca86"/><rect x="25" y="290" width="50" height="80" fill="#c9ca86" rx="10"/><rect x="35" y="370" width="10" height="40" fill="#c9ca86" rx="5"/><rect x="55" y="370" width="10" height="40" fill="#c9ca86" rx="5"/><circle cx="150" cy="260" r="30" fill="#2467db"/><rect x="125" y="290" width="50" height="80" fill="#2467db" rx="10"/><rect x="135" y="370" width="10" height="40" fill="#2467db" rx="5"/><rect x="155" y="370" width="10" height="40" fill="#2467db" rx="5"/><circle cx="250" cy="260" r="30" fill="#abd345"/><rect x="225" y="290" width="50" height="80" fill="#abd345" rx="10"/><rect x="235" y="370" width="10" height="40" fill="#abd345" rx="5"/><rect x="255" y="370" width="10" height="40" fill="#abd345" rx="5"/><circle cx="350" cy="260" r="30" fill="#a8197b"/><rect x="325" y="290" width="50" height="80" fill="#a8197b" rx="10"/><rect x="335" y="370" width="10" height="40" fill="#a8197b" rx="5"/><rect x="355" y="370" width="10" height="40" fill="#a8197b" rx="5"/><circle cx="450" cy="260" r="30" fill="#bdb31c"/><rect x="425" y="290" width="50" height="80" fill="#bdb31c" rx="10"/><rect x="435" y="370" width="10" height="40" fill="#bdb31c" rx="5"/><rect x="455" y="370" width="10" height="40" fill="#bdb31c" rx="5"/><circle cx="550" cy="260" r="30" fill="#0f3e3a"/><rect x="525" y="290" width="50" height="80" fill="#0f3e3a" rx="10"/><rect x="535" y="370" width="10" height="40" fill="#0f3e3a" rx="5"/><rect x="555" y="370" width="10" height="40" fill="#0f3e3a" rx="5"/><circle cx="650" cy="260" r="30" fill="#448d4d"/><rect x="625" y="290" width="50" height="80" fill="#448d4d" rx="10"/><rect x="635" y="370" width="10" height="40" fill="#448d4d" rx="5"/><rect x="655" y="370" width="10" height="40" fill="#448d4d" rx="5"/><circle cx="750" cy="260" r="30" fill="#a7c89d"/><rect x="725" y="290" width="50" height="80" fill="#a7c89d" rx="10"/><rect x="735" y="370" width="10" height="40" fill="#a7c89d" rx="5"/><rect x="755" y="370" width="10" height="40" fill="#a7c89d" rx="5"/><circle cx="850" cy="260" r="30" fill="#0f7fe1"/><rect x="825" y="290" width="50" height="80" fill="#0f7fe1" rx="10"/><rect x="835" y="370" width="10" height="40" fill="#0f7fe1" rx="5"/><rect x="855" y="370" width="10" height="40" fill="#0f7fe1" rx="5"/><circle cx="950" cy="260" r="30" fill="#57370d"/><rect x="925" y="290" width="50" height="80" fill="#57370d" rx="10"/><rect x="935" y="370" width="10" height="40" fill="#57370d" rx="5"/><rect x="955" y="370" width="10" height="40" fill="#57370d" rx="5"/><circle cx="1050" cy="260" r="30" fill="#b7c081"/><rect x="1025" y="290" width="50" height="80" fill="#b7c081" rx="10"/><rect x="1035" y="370" width="10" height="40" fill="#b7c081" rx="5"/><rect x="1055" y="370" width="10" height="40" fill="#b7c081" rx="5"/><circle cx="1150" cy="260" r="30" fill="#32d355"/><rect x="1125" y="290" width="50" height="80" fill="#32d355" rx="10"/><rect x="1135" y="370" width="10" height="40" fill="#32d355" rx="5"/><rect x="1155" y="370" width="10" height="40" fill="#32d355" rx="5"/><circle cx="1250" cy="260" r="30" fill="#69446b"/><rect x="1225" y="290" width="50" height="80" fill="#69446b" rx="10"/><rect x="1235" y="370" width="10" height="40" fill="#69446b" rx="5"/><rect x="1255" y="370" width="10" height="40" fill="#69446b" rx="5"/><circle cx="1350" cy="260" r="30" fill="#ed2160"/><rect x="1325" y="290" width="50" height="80" fill="#ed2160" rx="10"/><rect x="1335" y="370" width="10" height="40" fill="#ed2160" rx="5"/><rect x="1355" y="370" width="10" height="40" fill="#ed2160" rx="5"/><circle cx="1450" cy="260" r="30" fill="#ba2a83"/><rect x="1425" y="290" width="50" height="80" fill="#ba2a83" rx="10"/><rect x="1435" y="370" width="10" height="40" fill="#ba2a83" rx="5"/><rect x="1455" y="370" width="10" height="40" fill="#ba2a83" rx="5"/><circle cx="50" cy="460" r="30" fill="#1e2c4e"/><rect x="25" y="490" width="50" height="80" fill="#1e2c4e" rx="10"/><rect x="35" y="570" width="10" height="40" fill="#1e2c4e" rx="5"/><rect x="55" y="570" width="10" height="40" fill="#1e2c4e" rx="5"/><circle cx="150" cy="460" r="30" fill="#0ee6e7"/><rect x="125" y="490" width="50" height="80" fill="#0ee6e7" rx="10"/><rect x="135" y="570" width="10" height="40" fill="#0ee6e7" rx="5"/><rect x="155" y="570" width="10" height="40" fill="#0ee6e7" rx="5"/><circle cx="250" cy="460" r="30" fill="#52746a"/><rect x="225" y="490" width="50" height="80" fill="#52746a" rx="10"/><rect x="235" y="570" width="10" height="40" fill="#52746a" rx="5"/><rect x="255" y="570" width="10" height="40" fill="#52746a" rx="5"/><circle cx="350" cy="460" r="30" fill="#d1ad38"/><rect x="325" y="490" width="50" height="80" fill="#d1ad38" rx="10"/><rect x="335" y="570" width="10" height="40" fill="#d1ad38" rx="5"/><rect x="355" y="570" width="10" height="40" fill="#d1ad38" rx="5"/><circle cx="450" cy="460" r="30" fill="#141db5"/><rect x="425" y="490" width="50" height="80" fill="#141db5" rx="10"/><rect x="435" y="570" width="10" height="40" fill="#141db5" rx="5"/><rect x="455" y="570" width="10" height="40" fill="#141db5" rx="5"/><circle cx="550" cy="460" r="30" fill="#0c749f"/><rect x="525" y="490" width="50" height="80" fill="#0c749f" rx="10"/><rect x="535" y="570" width="10" height="40" fill="#0c749f" rx="5"/><rect x="555" y="570" width="10" height="40" fill="#0c749f" rx="5"/><circle cx="650" cy="460" r="30" fill="#dcdc00"/><rect x="625" y="490" width="50" height="80" fill="#dcdc00" rx="10"/><rect x="635" y="570" width="10" height="40" fill="#dcdc00" rx="5"/><rect x="655" y="570" width="10" height="40" fill="#dcdc00" rx="5"/><circle cx="750" cy="460" r="30" fill="#fdcebd"/><rect x="725" y="490" width="50" height="80" fill="#fdcebd" rx="10"/><rect x="735" y="570" width="10" height="40" fill="#fdcebd" rx="5"/><rect x="755" y="570" width="10" height="40" fill="#fdcebd" rx="5"/><circle cx="850" cy="460" r="30" fill="#56e48e"/><rect x="825" y="490" width="50" height="80" fill="#56e48e" rx="10"/><rect x="835" y="570" width="10" height="40" fill="#56e48e" rx="5"/><rect x="855" y="570" width="10" height="40" fill="#56e48e" rx="5"/><circle cx="950" cy="460" r="30" fill="#beea0f"/><rect x="925" y="490" width="50" height="80" fill="#beea0f" rx="10"/><rect x="935" y="570" width="10" height="40" fill="#beea0f" rx="5"/><rect x="955" y="570" width="10" height="40" fill="#beea0f" rx="5"/><circle cx="1050" cy="460" r="30" fill="#42ae87"/><rect x="1025" y="490" width="50" height="80" fill="#42ae87" rx="10"/><rect x="1035" y="570" width="10" height="40" fill="#42ae87" rx="5"/><rect x="1055" y="570" width="10" height="40" fill="#42ae87" rx="5"/><circle cx="1150" cy="460" r="30" fill="#ff1db1"/><rect x="1125" y="490" width="50" height="80" fill="#ff1db1" rx="10"/><rect x="1135" y="570" width="10" height="40" fill="#ff1db1" rx="5"/><rect x="1155" y="570" width="10" height="40" fill="#ff1db1" rx="5"/><circle cx="1250" cy="460" r="30" fill="#8ea445"/><rect x="1225" y="490" width="50" height="80" fill="#8ea445" rx="10"/><rect x="1235" y="570" width="10" height="40" fill="#8ea445" rx="5"/><rect x="1255" y="570" width="10" height="40" fill="#8ea445" rx="5"/><circle cx="1350" cy="460" r="30" fill="#eec514"/><rect x="1325" y="490" width="50" height="80" fill="#eec514" rx="10"/><rect x="1335" y="570" width="10" height="40" fill="#eec514" rx="5"/><rect x="1355" y="570" width="10" height="40" fill="#eec514" rx="5"/><circle cx="1450" cy="460" r="30" fill="#d9c7a0"/><rect x="1425" y="490" width="50" height="80" fill="#d9c7a0" rx="10"/><rect x="1435" y="570" width="10" height="40" fill="#d9c7a0" rx="5"/><rect x="1455" y="570" width="10" height="40" fill="#d9c7a0" rx="5"/><circle cx="50" cy="660" r="30" fill="#4fe37e"/><rect x="25" y="690" width="50" height="80" fill="#4fe37e" rx="10"/><rect x="35" y="770" width="10" height="40" fill="#4fe37e" rx="5"/><rect x="55" y="770" width="10" height="40" fill="#4fe37e" rx="5"/><circle cx="150" cy="660" r="30" fill="#cad447"/><rect x="125" y="690" width="50" height="80" fill="#cad447" rx="10"/><rect x="135" y="770" width="10" height="40" fill="#cad447" rx="5"/><rect x="155" y="770" width="10" height="40" fill="#cad447" rx="5"/><circle cx="250" cy="660" r="30" fill="#c35687"/><rect x="225" y="690" width="50" height="80" fill="#c35687" rx="10"/><rect x="235" y="770" width="10" height="40" fill="#c35687" rx="5"/><rect x="255" y="770" width="10" height="40" fill="#c35687" rx="5"/><circle cx="350" cy="660" r="30" fill="#5a2dc4"/><rect x="325" y="690" width="50" height="80" fill="#5a2dc4" rx="10"/><rect x="335" y="770" width="10" height="40" fill="#5a2dc4" rx="5"/><rect x="355" y="770" width="10" height="40" fill="#5a2dc4" rx="5"/><circle cx="450" cy="660" r="30" fill="#868e23"/><rect x="425" y="690" width="50" height="80" fill="#868e23" rx="10"/><rect x="435" y="770" width="10" height="40" fill="#868e23" rx="5"/><rect x="455" y="770" width="10" height="40" fill="#868e23" rx="5"/><circle cx="550" cy="660" r="30" fill="#9f7853"/><rect x="525" y="690" width="50" height="80" fill="#9f7853" rx="10"/><rect x="535" y="770" width="10" height="40" fill="#9f7853" rx="5"/><rect x="555" y="770" width="10" height="40" fill="#9f7853" rx="5"/><circle cx="650" cy="660" r="30" fill="#9c6550"/><rect x="625" y="690" width="50" height="80" fill="#9c6550" rx="10"/><rect x="635" y="770" width="10" height="40" fill="#9c6550" rx="5"/><rect x="655" y="770" width="10" height="40" fill="#9c6550" rx="5"/><circle cx="750" cy="660" r="30" fill="#200150"/><rect x="725" y="690" width="50" height="80" fill="#200150" rx="10"/><rect x="735" y="770" width="10" height="40" fill="#200150" rx="5"/><rect x="755" y="770" width="10" height="40" fill="#200150" rx="5"/><circle cx="850" cy="660" r="30" fill="#63e811"/><rect x="825" y="690" width="50" height="80" fill="#63e811" rx="10"/><rect x="835" y="770" width="10" height="40" fill="#63e811" rx="5"/><rect x="855" y="770" width="10" height="40" fill="#63e811" rx="5"/><circle cx="950" cy="660" r="30" fill="#aa677d"/><rect x="925" y="690" width="50" height="80" fill="#aa677d" rx="10"/><rect x="935" y="770" width="10" height="40" fill="#aa677d" rx="5"/><rect x="955" y="770" width="10" height="40" fill="#aa677d" rx="5"/><circle cx="1050" cy="660" r="30" fill="#f03a93"/><rect x="1025" y="690" width="50" height="80" fill="#f03a93" rx="10"/><rect x="1035" y="770" width="10" height="40" fill="#f03a93" rx="5"/><rect x="1055" y="770" width="10" height="40" fill="#f03a93" rx="5"/><circle cx="1150" cy="660" r="30" fill="#8d5b7b"/><rect x="1125" y="690" width="50" height="80" fill="#8d5b7b" rx="10"/><rect x="1135" y="770" width="10" height="40" fill="#8d5b7b" rx="5"/><rect x="1155" y="770" width="10" height="40" fill="#8d5b7b" rx="5"/><circle cx="1250" cy="660" r="30" fill="#4c988e"/><rect x="1225" y="690" width="50" height="80" fill="#4c988e" rx="10"/><rect x="1235" y="770" width="10" height="40" fill="#4c988e" rx="5"/><rect x="1255" y="770" width="10" height="40" fill="#4c988e" rx="5"/><circle cx="1350" cy="660" r="30" fill="#42c4aa"/><rect x="1325" y="690" width="50" height="80" fill="#42c4aa" rx="10"/><rect x="1335" y="770" width="10" height="40" fill="#42c4aa" rx="5"/><rect x="1355" y="770" width="10" height="40" fill="#42c4aa" rx="5"/><circle cx="1450" cy="660" r="30" fill="#7211c0"/><rect x="1425" y="690" width="50" height="80" fill="#7211c0" rx="10"/><rect x="1435" y="770" width="10" height="40" fill="#7211c0" rx="5"/><rect x="1455" y="770" width="10" height="40" fill="#7211c0" rx="5"/><circle cx="50" cy="860" r="30" fill="#a36474"/><rect x="25" y="890" width="50" height="80" fill="#a36474" rx="10"/><rect x="35" y="970" width="10" height="40" fill="#a36474" rx="5"/><rect x="55" y="970" width="10" height="40" fill="#a36474" rx="5"/><circle cx="150" cy="860" r="30" fill="#9a2c23"/><rect x="125" y="890" width="50" height="80" fill="#9a2c23" rx="10"/><rect x="135" y="970" width="10" height="40" fill="#9a2c23" rx="5"/><rect x="155" y="970" width="10" height="40" fill="#9a2c23" rx="5"/><circle cx="250" cy="860" r="30" fill="#3c4b79"/><rect x="225" y="890" width="50" height="80" fill="#3c4b79" rx="10"/><rect x="235" y="970" width="10" height="40" fill="#3c4b79" rx="5"/><rect x="255" y="970" width="10" height="40" fill="#3c4b79" rx="5"/><circle cx="350" cy="860" r="30" fill="#a3e603"/><rect x="325" y="890" width="50" height="80" fill="#a3e603" rx="10"/><rect x="335" y="970" width="10" height="40" fill="#a3e603" rx="5"/><rect x="355" y="970" width="10" height="40" fill="#a3e603" rx="5"/><circle cx="450" cy="860" r="30" fill="#6992e1"/><rect x="425" y="890" width="50" height="80" fill="#6992e1" rx="10"/><rect x="435" y="970" width="10" height="40" fill="#6992e1" rx="5"/><rect x="455" y="970" width="10" height="40" fill="#6992e1" rx="5"/><circle cx="550" cy="860" r="30" fill="#123853"/><rect x="525" y="890" width="50" height="80" fill="#123853" rx="10"/><rect x="535" y="970" width="10" height="40" fill="#123853" rx="5"/><rect x="555" y="970" width="10" height="40" fill="#123853" rx="5"/><circle cx="650" cy="860" r="30" fill="#8d4a71"/><rect x="625" y="890" width="50" height="80" fill="#8d4a71" rx="10"/><rect x="635" y="970" width="10" height="40" fill="#8d4a71" rx="5"/><rect x="655" y="970" width="10" height="40" fill="#8d4a71" rx="5"/><circle cx="750" cy="860" r="30" fill="#453c79"/><rect x="725" y="890" width="50" height="80" fill="#453c79" rx="10"/><rect x="735" y="970" width="10" height="40" fill="#453c79" rx="5"/><rect x="755" y="970" width="10" height="40" fill="#453c79" rx="5"/><circle cx="850" cy="860" r="30" fill="#d20c55"/><rect x="825" y="890" width="50" height="80" fill="#d20c55" rx="10"/><rect x="835" y="970" width="10" height="40" fill="#d20c55" rx="5"/><rect x="855" y="970" width="10" height="40" fill="#d20c55" rx="5"/><circle cx="950" cy="860" r="30" fill="#7a124b"/><rect x="925" y="890" width="50" height="80" fill="#7a124b" rx="10"/><rect x="935" y="970" width="10" height="40" fill="#7a124b" rx="5"/><rect x="955" y="970" width="10" height="40" fill="#7a124b" rx="5"/><circle cx="1050" cy="860" r="30" fill="#d09c2a"/><rect x="1025" y="890" width="50" height="80" fill="#d09c2a" rx="10"/><rect x="1035" y="970" width="10" height="40" fill="#d09c2a" rx="5"/><rect x="1055" y="970" width="10" height="40" fill="#d09c2a" rx="5"/><circle cx="1150" cy="860" r="30" fill="#5a53ab"/><rect x="1125" y="890" width="50" height="80" fill="#5a53ab" rx="10"/><rect x="1135" y="970" width="10" height="40" fill="#5a53ab" rx="5"/><rect x="1155" y="970" width="10" height="40" fill="#5a53ab" rx="5"/><circle cx="1250" cy="860" r="30" fill="#66fd95"/><rect x="1225" y="890" width="50" height="80" fill="#66fd95" rx="10"/><rect x="1235" y="970" width="10" height="40" fill="#66fd95" rx="5"/><rect x="1255" y="970" width="10" height="40" fill="#66fd95" rx="5"/><circle cx="1350" cy="860" r="30" fill="#b4bdc0"/><rect x="1325" y="890" width="50" height="80" fill="#b4bdc0" rx="10"/><rect x="1335" y="970" width="10" height="40" fill="#b4bdc0" rx="5"/><rect x="1355" y="970" width="10" height="40" fill="#b4bdc0" rx="5"/><circle cx="1450" cy="860" r="30" fill="#e0d803"/><rect x="1425" y="890" width="50" height="80" fill="#e0d803" rx="10"/><rect x="1435" y="970" width="10" height="40" fill="#e0d803" rx="5"/><rect x="1455" y="970" width="10" height="40" fill="#e0d803" rx="5"/><circle cx="50" cy="1060" r="30" fill="#3496e8"/><rect x="25" y="1090" width="50" height="80" fill="#3496e8" rx="10"/><rect x="35" y="1170" width="10" height="40" fill="#3496e8" rx="5"/><rect x="55" y="1170" width="10" height="40" fill="#3496e8" rx="5"/><circle cx="150" cy="1060" r="30" fill="#c621c5"/><rect x="125" y="1090" width="50" height="80" fill="#c621c5" rx="10"/><rect x="135" y="1170" width="10" height="40" fill="#c621c5" rx="5"/><rect x="155" y="1170" width="10" height="40" fill="#c621c5" rx="5"/><circle cx="250" cy="1060" r="30" fill="#3e3f0b"/><rect x="225" y="1090" width="50" height="80" fill="#3e3f0b" rx="10"/><rect x="235" y="1170" width="10" height="40" fill="#3e3f0b" rx="5"/><rect x="255" y="1170" width="10" height="40" fill="#3e3f0b" rx="5"/><circle cx="350" cy="1060" r="30" fill="#621562"/><rect x="325" y="1090" width="50" height="80" fill="#621562" rx="10"/><rect x="335" y="1170" width="10" height="40" fill="#621562" rx="5"/><rect x="355" y="1170" width="10" height="40" fill="#621562" rx="5"/><circle cx="450" cy="1060" r="30" fill="#649b8c"/><rect x="425" y="1090" width="50" height="80" fill="#649b8c" rx="10"/><rect x="435" y="1170" width="10" height="40" fill="#649b8c" rx="5"/><rect x="455" y="1170" width="10" height="40" fill="#649b8c" rx="5"/><circle cx="550" cy="1060" r="30" fill="#84f742"/><rect x="525" y="1090" width="50" height="80" fill="#84f742" rx="10"/><rect x="535" y="1170" width="10" height="40" fill="#84f742" rx="5"/><rect x="555" y="1170" width="10" height="40" fill="#84f742" rx="5"/><circle cx="650" cy="1060" r="30" fill="#d80529"/><rect x="625" y="1090" width="50" height="80" fill="#d80529" rx="10"/><rect x="635" y="1170" width="10" height="40" fill="#d80529" rx="5"/><rect x="655" y="1170" width="10" height="40" fill="#d80529" rx="5"/><circle cx="750" cy="1060" r="30" fill="#00d156"/><rect x="725" y="1090" width="50" height="80" fill="#00d156" rx="10"/><rect x="735" y="1170" width="10" height="40" fill="#00d156" rx="5"/><rect x="755" y="1170" width="10" height="40" fill="#00d156" rx="5"/><circle cx="850" cy="1060" r="30" fill="#ff97d5"/><rect x="825" y="1090" width="50" height="80" fill="#ff97d5" rx="10"/><rect x="835" y="1170" width="10" height="40" fill="#ff97d5" rx="5"/><rect x="855" y="1170" width="10" height="40" fill="#ff97d5" rx="5"/><circle cx="950" cy="1060" r="30" fill="#d24b87"/><rect x="925" y="1090" width="50" height="80" fill="#d24b87" rx="10"/><rect x="935" y="1170" width="10" height="40" fill="#d24b87" rx="5"/><rect x="955" y="1170" width="10" height="40" fill="#d24b87" rx="5"/><circle cx="1050" cy="1060" r="30" fill="#e4233a"/><rect x="1025" y="1090" width="50" height="80" fill="#e4233a" rx="10"/><rect x="1035" y="1170" width="10" height="40" fill="#e4233a" rx="5"/><rect x="1055" y="1170" width="10" height="40" fill="#e4233a" rx="5"/><circle cx="1150" cy="1060" r="30" fill="#4cd5ba"/><rect x="1125" y="1090" width="50" height="80" fill="#4cd5ba" rx="10"/><rect x="1135" y="1170" width="10" height="40" fill="#4cd5ba" rx="5"/><rect x="1155" y="1170" width="10" height="40" fill="#4cd5ba" rx="5"/><circle cx="1250" cy="1060" r="30" fill="#eda23f"/><rect x="1225" y="1090" width="50" height="80" fill="#eda23f" rx="10"/><rect x="1235" y="1170" width="10" height="40" fill="#eda23f" rx="5"/><rect x="1255" y="1170" width="10" height="40" fill="#eda23f" rx="5"/><circle cx="1350" cy="1060" r="30" fill="#e16e19"/><rect x="1325" y="1090" width="50" height="80" fill="#e16e19" rx="10"/><rect x="1335" y="1170" width="10" height="40" fill="#e16e19" rx="5"/><rect x="1355" y="1170" width="10" height="40" fill="#e16e19" rx="5"/><circle cx="1450" cy="1060" r="30" fill="#eed3ae"/><rect x="1425" y="1090" width="50" height="80" fill="#eed3ae" rx="10"/><rect x="1435" y="1170" width="10" height="40" fill="#eed3ae" rx="5"/><rect x="1455" y="1170" width="10" height="40" fill="#eed3ae" rx="5"/><circle cx="50" cy="1260" r="30" fill="#78afac"/><rect x="25" y="1290" width="50" height="80" fill="#78afac" rx="10"/><rect x="35" y="1370" width="10" height="40" fill="#78afac" rx="5"/><rect x="55" y="1370" width="10" height="40" fill="#78afac" rx="5"/><circle cx="150" cy="1260" r="30" fill="#f0d811"/><rect x="125" y="1290" width="50" height="80" fill="#f0d811" rx="10"/><rect x="135" y="1370" width="10" height="40" fill="#f0d811" rx="5"/><rect x="155" y="1370" width="10" height="40" fill="#f0d811" rx="5"/><circle cx="250" cy="1260" r="30" fill="#660fb5"/><rect x="225" y="1290" width="50" height="80" fill="#660fb5" rx="10"/><rect x="235" y="1370" width="10" height="40" fill="#660fb5" rx="5"/><rect x="255" y="1370" width="10" height="40" fill="#660fb5" rx="5"/><circle cx="350" cy="1260" r="30" fill="#1cc516"/><rect x="325" y="1290" width="50" height="80" fill="#1cc516" rx="10"/><rect x="335" y="1370" width="10" height="40" fill="#1cc516" rx="5"/><rect x="355" y="1370" width="10" height="40" fill="#1cc516" rx="5"/><circle cx="450" cy="1260" r="30" fill="#cc7da2"/><rect x="425" y="1290" width="50" height="80" fill="#cc7da2" rx="10"/><rect x="435" y="1370" width="10" height="40" fill="#cc7da2" rx="5"/><rect x="455" y="1370" width="10" height="40" fill="#cc7da2" rx="5"/><circle cx="550" cy="1260" r="30" fill="#f23829"/><rect x="525" y="1290" width="50" height="80" fill="#f23829" rx="10"/><rect x="535" y="1370" width="10" height="40" fill="#f23829" rx="5"/><rect x="555" y="1370" width="10" height="40" fill="#f23829" rx="5"/><circle cx="650" cy="1260" r="30" fill="#0e2f14"/><rect x="625" y="1290" width="50" height="80" fill="#0e2f14" rx="10"/><rect x="635" y="1370" width="10" height="40" fill="#0e2f14" rx="5"/><rect x="655" y="1370" width="10" height="40" fill="#0e2f14" rx="5"/><circle cx="750" cy="1260" r="30" fill="#11e09d"/><rect x="725" y="1290" width="50" height="80" fill="#11e09d" rx="10"/><rect x="735" y="1370" width="10" height="40" fill="#11e09d" rx="5"/><rect x="755" y="1370" width="10" height="40" fill="#11e09d" rx="5"/><circle cx="850" cy="1260" r="30" fill="#2e709c"/><rect x="825" y="1290" width="50" height="80" fill="#2e709c" rx="10"/><rect x="835" y="1370" width="10" height="40" fill="#2e709c" rx="5"/><rect x="855" y="1370" width="10" height="40" fill="#2e709c" rx="5"/><circle cx="950" cy="1260" r="30" fill="#428394"/><rect x="925" y="1290" width="50" height="80" fill="#428394" rx="10"/><rect x="935" y="1370" width="10" height="40" fill="#428394" rx="5"/><rect x="955" y="1370" width="10" height="40" fill="#428394" rx="5"/><circle cx="1050" cy="1260" r="30" fill="#0ad8a0"/><rect x="1025" y="1290" width="50" height="80" fill="#0ad8a0" rx="10"/><rect x="1035" y="1370" width="10" height="40" fill="#0ad8a0" rx="5"/><rect x="1055" y="1370" width="10" height="40" fill="#0ad8a0" rx="5"/><circle cx="1150" cy="1260" r="30" fill="#3f72d6"/><rect x="1125" y="1290" width="50" height="80" fill="#3f72d6" rx="10"/><rect x="1135" y="1370" width="10" height="40" fill="#3f72d6" rx="5"/><rect x="1155" y="1370" width="10" height="40" fill="#3f72d6" rx="5"/><circle cx="1250" cy="1260" r="30" fill="#5f6150"/><rect x="1225" y="1290" width="50" height="80" fill="#5f6150" rx="10"/><rect x="1235" y="1370" width="10" height="40" fill="#5f6150" rx="5"/><rect x="1255" y="1370" width="10" height="40" fill="#5f6150" rx="5"/><circle cx="1350" cy="1260" r="30" fill="#aa4d2e"/><rect x="1325" y="1290" width="50" height="80" fill="#aa4d2e" rx="10"/><rect x="1335" y="1370" width="10" height="40" fill="#aa4d2e" rx="5"/><rect x="1355" y="1370" width="10" height="40" fill="#aa4d2e" rx="5"/><circle cx="1450" cy="1260" r="30" fill="#8be4ba"/><rect x="1425" y="1290" width="50" height="80" fill="#8be4ba" rx="10"/><rect x="1435" y="1370" width="10" height="40" fill="#8be4ba" rx="5"/><rect x="1455" y="1370" width="10" height="40" fill="#8be4ba" rx="5"/></svg>